<svg width="76" height="76" viewBox="0 0 76 76" fill="none" xmlns="http://www.w3.org/2000/svg">
<path d="M49.0587 17.4117C58.0095 22.0727 64.0806 29.6133 65.7728 38.1633C66.2032 40.3305 66.2478 44.4274 65.8618 46.55C65.3868 49.1477 64.3626 51.7453 63.1157 53.5117C61.3939 55.9758 60.1173 57.1484 58.0095 58.2024C56.0798 59.1672 54.8774 59.4492 52.4728 59.4344C50.0532 59.4344 49.0735 59.2266 47.3368 58.3211C45.2587 57.2375 43.7743 55.6047 42.5868 53.0664C41.8149 51.4336 41.5329 50.1274 41.5478 48.3164C41.5774 42.2305 46.1345 37.6586 52.547 37.3024C54.2985 37.2133 55.3821 37.3617 56.7181 37.9109L57.6235 38.282L57.5196 37.5844C57.1931 35.343 56.1837 32.4633 55.0556 30.4891C53.0962 27.075 49.7267 23.7797 45.7634 21.4195C45.0064 20.9594 44.3978 20.5438 44.4126 20.4992C44.5314 20.232 47.1439 16.4914 47.2032 16.4914C47.2478 16.4914 48.079 16.907 49.0587 17.4117Z" fill="#C6C6C6"/>
<path d="M17.3672 17.382C27.3868 22.6664 33.7993 31.4539 34.4227 40.7758C34.8532 47.2774 32.9977 52.6656 29.0344 56.3766C24.9375 60.2063 17.6196 60.5774 13.775 57.1485C12.2758 55.8125 10.7172 53.1852 10.168 51.0774C8.90629 46.1938 11.2368 40.9985 15.7344 38.6828C18.718 37.1391 22.4438 36.8422 25.1157 37.9258C25.5907 38.1039 25.9766 38.2375 25.9766 38.193C25.9766 38.1485 25.843 37.4656 25.6797 36.6641C24.418 30.4742 20.618 25.4422 14.2055 21.4938C13.4188 21.0039 12.7657 20.5735 12.7657 20.5289C12.7657 20.4102 15.4969 16.4766 15.5711 16.4766C15.6157 16.4766 16.4321 16.8922 17.3672 17.382Z" fill="#C6C6C6"/>
</svg>
