<svg width="76" height="76" viewBox="0 0 76 76" fill="none" xmlns="http://www.w3.org/2000/svg">
<path d="M26.9413 17.4117C17.9905 22.0727 11.9194 29.6133 10.2272 38.1633C9.79677 40.3305 9.75224 44.4274 10.1382 46.55C10.6132 49.1477 11.6374 51.7453 12.8843 53.5117C14.6061 55.9758 15.8827 57.1484 17.9905 58.2024C19.9202 59.1672 21.1226 59.4492 23.5272 59.4344C25.9468 59.4344 26.9265 59.2266 28.6632 58.3211C30.7413 57.2375 32.2257 55.6047 33.4132 53.0664C34.1851 51.4336 34.4671 50.1274 34.4522 48.3164C34.4226 42.2305 29.8655 37.6586 23.453 37.3024C21.7015 37.2133 20.6179 37.3617 19.2819 37.9109L18.3765 38.282L18.4804 37.5844C18.8069 35.343 19.8163 32.4633 20.9444 30.4891C22.9038 27.075 26.2733 23.7797 30.2366 21.4195C30.9936 20.9594 31.6022 20.5438 31.5874 20.4992C31.4686 20.232 28.8561 16.4914 28.7968 16.4914C28.7522 16.4914 27.921 16.907 26.9413 17.4117Z" fill="#C6C6C6"/>
<path d="M58.6328 17.382C48.6132 22.6664 42.2007 31.4539 41.5773 40.7758C41.1468 47.2774 43.0023 52.6656 46.9656 56.3766C51.0625 60.2063 58.3804 60.5774 62.225 57.1485C63.7242 55.8125 65.2828 53.1852 65.832 51.0774C67.0937 46.1938 64.7632 40.9985 60.2656 38.6828C57.282 37.1391 53.5562 36.8422 50.8843 37.9258C50.4093 38.1039 50.0234 38.2375 50.0234 38.193C50.0234 38.1485 50.157 37.4656 50.3203 36.6641C51.582 30.4742 55.382 25.4422 61.7945 21.4938C62.5812 21.0039 63.2343 20.5735 63.2343 20.5289C63.2343 20.4102 60.5031 16.4766 60.4289 16.4766C60.3843 16.4766 59.5679 16.8922 58.6328 17.382Z" fill="#C6C6C6"/>
</svg>
